<?xml version="1.0" encoding="utf-8"?>
<!-- Generator: Adobe Illustrator 16.0.0, SVG Export Plug-In . SVG Version: 6.00 Build 0)  -->
<!DOCTYPE svg PUBLIC "-//W3C//DTD SVG 1.1//EN" "http://www.w3.org/Graphics/SVG/1.1/DTD/svg11.dtd">
<svg version="1.1" id="Layer_1" xmlns="http://www.w3.org/2000/svg" xmlns:xlink="http://www.w3.org/1999/xlink" x="0px" y="0px"
	 width="159px" height="159px" viewBox="0 0 159 159" enable-background="new 0 0 159 159" xml:space="preserve">
<line fill="none" stroke="#000000" stroke-miterlimit="10" x1="79.5" y1="135" x2="79.5" y2="159"/>
<line fill="none" stroke="#000000" stroke-miterlimit="10" x1="159" y1="79.5" x2="135" y2="79.5"/>
<rect x="54.5" y="54.5" fill="none" stroke="#000000" stroke-miterlimit="10" width="20" height="20"/>
<rect x="84.5" y="54.5" fill="none" stroke="#000000" stroke-miterlimit="10" width="20" height="20"/>
<rect x="84.5" y="84.5" fill="none" stroke="#000000" stroke-miterlimit="10" width="20" height="20"/>
<rect x="54.5" y="84.5" fill="none" stroke="#000000" stroke-miterlimit="10" width="20" height="20"/>
<rect x="108.5" y="42.5" fill="none" stroke="#000000" stroke-miterlimit="10" width="8" height="8"/>
<rect x="108.5" y="107.5" fill="none" stroke="#000000" stroke-miterlimit="10" width="8" height="8"/>
<rect x="139.5" y="140.5" fill="none" stroke="#000000" stroke-miterlimit="10" width="4" height="4"/>
<rect x="14.5" y="140.5" fill="none" stroke="#000000" stroke-miterlimit="10" width="4" height="4"/>
<rect x="139.5" y="15.5" fill="none" stroke="#000000" stroke-miterlimit="10" width="4" height="4"/>
<rect x="14.5" y="15.5" fill="none" stroke="#000000" stroke-miterlimit="10" width="4" height="4"/>
<rect x="42.5" y="107.5" fill="none" stroke="#000000" stroke-miterlimit="10" width="8" height="8"/>
<rect x="42.5" y="42.5" fill="none" stroke="#000000" stroke-miterlimit="10" width="8" height="8"/>
<line fill="none" stroke="#000000" stroke-miterlimit="10" x1="104" y1="64.5" x2="144" y2="64.5"/>
<line fill="none" stroke="#000000" stroke-miterlimit="10" x1="94.5" y1="55" x2="94.5" y2="15"/>
<line fill="none" stroke="#000000" stroke-miterlimit="10" x1="104" y1="94.5" x2="144" y2="94.5"/>
<line fill="none" stroke="#000000" stroke-miterlimit="10" x1="14" y1="64.5" x2="54" y2="64.5"/>
<line fill="none" stroke="#000000" stroke-miterlimit="10" x1="14" y1="94.5" x2="54" y2="94.5"/>
<line fill="none" stroke="#000000" stroke-miterlimit="10" x1="64.5" y1="55" x2="64.5" y2="15"/>
<line fill="none" stroke="#000000" stroke-miterlimit="10" x1="94.5" y1="145" x2="94.5" y2="105"/>
<line fill="none" stroke="#000000" stroke-miterlimit="10" x1="64.5" y1="145" x2="64.5" y2="105"/>
<line fill="none" stroke="#000000" stroke-miterlimit="10" x1="24" y1="79.5" x2="0" y2="79.5"/>
<line fill="none" stroke="#000000" stroke-miterlimit="10" x1="79.5" y1="0" x2="79.5" y2="24"/>
</svg>
