<?xml version="1.0" encoding="utf-8"?>
<!-- Generator: Adobe Illustrator 16.0.0, SVG Export Plug-In . SVG Version: 6.00 Build 0)  -->
<!DOCTYPE svg PUBLIC "-//W3C//DTD SVG 1.1//EN" "http://www.w3.org/Graphics/SVG/1.1/DTD/svg11.dtd">
<svg version="1.1" id="Layer_1" xmlns="http://www.w3.org/2000/svg" xmlns:xlink="http://www.w3.org/1999/xlink" x="0px" y="0px"
	 width="159px" height="159px" viewBox="0 0 159 159" enable-background="new 0 0 159 159" xml:space="preserve">
<line fill="none" stroke="#000000" stroke-width="2" stroke-miterlimit="10" x1="78" y1="135" x2="78" y2="159"/>
<line fill="none" stroke="#000000" stroke-width="2" stroke-miterlimit="10" x1="159" y1="81" x2="135" y2="81"/>
<rect x="53" y="56" fill="none" stroke="#000000" stroke-width="2" stroke-miterlimit="10" width="20" height="20"/>
<rect x="83" y="56" fill="none" stroke="#000000" stroke-width="2" stroke-miterlimit="10" width="20" height="20"/>
<rect x="83" y="86" fill="none" stroke="#000000" stroke-width="2" stroke-miterlimit="10" width="20" height="20"/>
<rect x="53" y="86" fill="none" stroke="#000000" stroke-width="2" stroke-miterlimit="10" width="20" height="20"/>
<rect x="107" y="44" fill="none" stroke="#000000" stroke-width="2" stroke-miterlimit="10" width="8" height="8"/>
<rect x="107" y="109" fill="none" stroke="#000000" stroke-width="2" stroke-miterlimit="10" width="8" height="8"/>
<rect x="138" y="142" fill="none" stroke="#000000" stroke-width="2" stroke-miterlimit="10" width="4" height="4"/>
<rect x="13" y="142" fill="none" stroke="#000000" stroke-width="2" stroke-miterlimit="10" width="4" height="4"/>
<rect x="138" y="17" fill="none" stroke="#000000" stroke-width="2" stroke-miterlimit="10" width="4" height="4"/>
<rect x="13" y="17" fill="none" stroke="#000000" stroke-width="2" stroke-miterlimit="10" width="4" height="4"/>
<rect x="41" y="109" fill="none" stroke="#000000" stroke-width="2" stroke-miterlimit="10" width="8" height="8"/>
<rect x="41" y="44" fill="none" stroke="#000000" stroke-width="2" stroke-miterlimit="10" width="8" height="8"/>
<line fill="none" stroke="#000000" stroke-width="2" stroke-miterlimit="10" x1="104" y1="66" x2="144" y2="66"/>
<line fill="none" stroke="#000000" stroke-width="2" stroke-miterlimit="10" x1="93" y1="55" x2="93" y2="15"/>
<line fill="none" stroke="#000000" stroke-width="2" stroke-miterlimit="10" x1="104" y1="96" x2="144" y2="96"/>
<line fill="none" stroke="#000000" stroke-width="2" stroke-miterlimit="10" x1="14" y1="66" x2="54" y2="66"/>
<line fill="none" stroke="#000000" stroke-width="2" stroke-miterlimit="10" x1="14" y1="96" x2="54" y2="96"/>
<line fill="none" stroke="#000000" stroke-width="2" stroke-miterlimit="10" x1="63" y1="55" x2="63" y2="15"/>
<line fill="none" stroke="#000000" stroke-width="2" stroke-miterlimit="10" x1="93" y1="145" x2="93" y2="105"/>
<line fill="none" stroke="#000000" stroke-width="2" stroke-miterlimit="10" x1="63" y1="145" x2="63" y2="105"/>
<line fill="none" stroke="#000000" stroke-width="2" stroke-miterlimit="10" x1="24" y1="81" x2="0" y2="81"/>
<line fill="none" stroke="#000000" stroke-width="2" stroke-miterlimit="10" x1="78" y1="0" x2="78" y2="24"/>
</svg>
